<svg width="148" height="151" viewBox="0 0 148 151" fill="none" xmlns="http://www.w3.org/2000/svg">
<g clip-path="url(#clip0_3134_1571)">
<path d="M82.96 49.61V103.06C93.97 99.03 101.82 88.47 101.84 76.07V76.01C101.84 68.31 98.79 61.32 93.85 56.16C90.79 53.23 87.08 50.97 82.96 49.61Z" fill="#D22D26"/>
<path d="M64.0798 103.35C66.9098 104.28 69.9298 104.8 73.0798 104.8C76.5498 104.8 79.8798 104.18 82.9598 103.06V49.61C80.1298 48.68 77.1098 48.16 73.9598 48.16C70.4898 48.16 67.1598 48.78 64.0798 49.9V103.35Z" fill="white"/>
<path d="M64.08 103.35V49.9C53.06 53.93 45.2 64.51 45.2 76.92C45.2 84.64 48.2499 91.64 53.1899 96.8C56.2499 99.73 59.96 101.99 64.08 103.34" fill="#263472"/>
<path d="M125.82 64.72L127.3 62.59L128.75 64.74L131.23 65.49L129.64 67.54L129.69 70.13L127.25 69.24L124.8 70.1L124.89 67.5L123.32 65.44L125.82 64.72Z" fill="white"/>
<path d="M17.1499 64.72L18.6399 62.59L20.0899 64.74L22.5699 65.49L20.9799 67.54L21.0299 70.13L18.5899 69.24L16.1399 70.1L16.2299 67.5L14.6599 65.44L17.1499 64.72Z" fill="white"/>
<path d="M144.87 96.86C143.1 104.57 139.81 111.94 135.43 118.57C131 125.18 125.43 131.03 119.07 135.86C106.34 145.52 90.3799 150.82 74.3899 150.96C58.4099 151.08 42.3399 146.24 29.3799 136.86C22.9099 132.19 17.1999 126.48 12.6099 119.98C8.06987 113.46 4.58987 106.18 2.61987 98.52C5.01987 106.05 8.65987 113.15 13.3999 119.41C18.0899 125.7 23.8199 131.18 30.2599 135.61C36.7099 140.01 43.7999 143.5 51.2799 145.74C58.7499 148 66.5699 149.07 74.3599 148.97C89.9799 148.99 105.51 143.82 118.15 134.64C124.49 130.06 130.09 124.44 134.62 118.03C139.21 111.66 142.66 104.46 144.86 96.87" fill="white"/>
<path d="M0.0199803 71C-0.21002 61.6 1.67998 52.14 5.40998 43.44C9.17998 34.76 14.79 26.88 21.68 20.35C28.56 13.79 36.8 8.71 45.65 5.25C54.5 1.8 64.01 0.04 73.52 0C83.03 0.04 92.54 1.8 101.4 5.25C110.25 8.71 118.49 13.79 125.37 20.35C132.26 26.87 137.87 34.75 141.64 43.44C145.36 52.14 147.25 61.6 147.02 71C146.8 61.61 144.71 52.29 140.74 43.84C136.85 35.36 131.19 27.73 124.32 21.48C117.43 15.24 109.43 10.25 100.74 6.96C92.07 3.64 82.79 1.99 73.51 2C64.24 1.98 54.95 3.64 46.28 6.95C37.6 10.25 29.59 15.23 22.7 21.47C15.83 27.72 10.17 35.35 6.27998 43.83C2.31998 52.29 0.23998 61.61 0.0199803 71Z" fill="white"/>
<path d="M107.54 86.2C106.81 89.91 105.28 93.46 103.25 96.7C101.18 99.92 98.5399 102.78 95.4799 105.13C89.3899 109.85 81.6699 112.48 73.9299 112.52C70.0599 112.54 66.1899 111.99 62.4999 110.83C58.8199 109.65 55.3199 107.92 52.2199 105.62C49.1099 103.35 46.3999 100.55 44.2499 97.38C42.1399 94.2 40.5199 90.68 39.6899 87C42.1499 94.15 47.0199 100.22 53.1099 104.34C59.2199 108.47 66.5599 110.62 73.8899 110.52C81.2299 110.52 88.5199 108.14 94.5299 103.88C100.53 99.62 105.25 93.42 107.51 86.2" fill="white"/>
<path d="M38.47 74.82C38.25 70.34 39.09 65.78 40.81 61.57C42.56 57.37 45.21 53.53 48.52 50.37C51.81 47.18 55.78 44.7 60.04 43C64.32 41.31 68.92 40.47 73.51 40.43C78.11 40.46 82.71 41.31 86.98 42.99C91.24 44.69 95.21 47.17 98.5 50.36C101.81 53.52 104.47 57.36 106.21 61.56C107.92 65.77 108.77 70.32 108.55 74.81C108.21 65.82 103.97 57.32 97.44 51.51C90.92 45.64 82.23 42.41 73.51 42.44C64.79 42.42 56.09 45.65 49.57 51.51C43.03 57.33 38.8 65.82 38.46 74.82" fill="white"/>
<path d="M19.3199 51.1C18.8299 50.86 18.5299 50.52 18.4199 50.08C18.3099 49.64 18.3499 49.22 18.5499 48.82L20.8699 44.16C21.1099 43.68 21.4199 43.37 21.8099 43.23C22.1999 43.09 22.6099 43.12 23.0399 43.33C23.4799 43.55 23.7599 43.85 23.8699 44.25C23.9899 44.64 23.9299 45.08 23.6899 45.56L22.1299 48.7L24.5599 49.91L25.9899 47.03C26.2299 46.55 26.5399 46.24 26.9199 46.1C27.2999 45.96 27.7199 45.99 28.1499 46.21C28.5899 46.43 28.8699 46.73 28.9799 47.13C29.0999 47.52 29.0399 47.96 28.7999 48.44L27.3699 51.32L29.8699 52.56L31.4899 49.31C31.7299 48.83 32.0399 48.52 32.4199 48.38C32.7999 48.24 33.2199 48.27 33.6599 48.49C34.0899 48.7 34.3599 49.01 34.4799 49.4C34.5999 49.8 34.5499 50.23 34.3099 50.71L31.9399 55.49C31.7399 55.89 31.4299 56.18 31.0199 56.36C30.5999 56.54 30.1499 56.5 29.6599 56.26L19.3199 51.12V51.1Z" fill="white"/>
<path d="M25.7899 39.01C25.3399 38.61 25.1199 38.18 25.1099 37.74C25.1099 37.3 25.2699 36.9 25.5999 36.53C25.7499 36.36 25.8999 36.24 26.0599 36.15C26.2099 36.06 26.3999 36 26.6199 35.97C26.8399 35.94 27.0999 35.93 27.3999 35.94C27.6999 35.95 28.0799 35.97 28.5399 36.01L37.5799 36.59L37.6099 36.56L32.3599 31.79C31.9099 31.39 31.6899 30.96 31.6799 30.52C31.6799 30.08 31.8399 29.68 32.1599 29.31C32.4799 28.94 32.8699 28.75 33.3099 28.71C33.7499 28.67 34.1899 28.86 34.6399 29.26L43.2199 37.06C43.6699 37.47 43.8899 37.89 43.8999 38.33C43.8999 38.77 43.7399 39.17 43.4099 39.54C43.2599 39.71 43.1099 39.83 42.9499 39.92C42.7999 40.01 42.6099 40.07 42.3899 40.1C42.1699 40.13 41.9099 40.14 41.5999 40.12C41.2899 40.1 40.9099 40.08 40.4699 40.06L31.4299 39.48L31.3999 39.51L36.6499 44.28C37.0999 44.68 37.3199 45.11 37.3299 45.55C37.3299 45.99 37.1699 46.39 36.8399 46.75C36.5099 47.11 36.1299 47.31 35.6899 47.35C35.2499 47.39 34.8099 47.2 34.3599 46.8L25.7799 39L25.7899 39.01Z" fill="white"/>
<path d="M41.9399 25.95L40.3199 26.96C39.8299 27.26 39.3899 27.37 38.9799 27.29C38.5699 27.21 38.2399 26.96 37.9899 26.56C37.7299 26.14 37.6599 25.74 37.7599 25.34C37.8699 24.94 38.1599 24.59 38.6499 24.29L44.7799 20.47C45.2699 20.17 45.7099 20.05 46.1199 20.13C46.5199 20.21 46.8499 20.46 47.1099 20.87C47.3599 21.27 47.4399 21.68 47.3299 22.08C47.2299 22.48 46.9299 22.84 46.4399 23.14L44.8199 24.15L50.1699 32.74C50.4899 33.25 50.5899 33.72 50.4799 34.15C50.3699 34.58 50.0999 34.92 49.6899 35.18C49.2699 35.44 48.8499 35.53 48.4199 35.44C47.9899 35.36 47.6099 35.06 47.2899 34.55L41.9399 25.96V25.95Z" fill="white"/>
<path d="M50.8699 19.3C50.7099 18.78 50.7399 18.33 50.9799 17.94C51.2199 17.56 51.5499 17.3 51.9799 17.16L55.8799 15.92C56.5999 15.69 57.2899 15.59 57.9399 15.62C58.5899 15.65 59.1899 15.79 59.7299 16.05C60.2699 16.31 60.7299 16.67 61.1299 17.14C61.5299 17.61 61.8299 18.18 62.0399 18.84C62.3699 19.89 62.3599 20.87 61.9899 21.77C61.6199 22.67 60.9499 23.38 59.9899 23.89L63.7799 26.04C64.0799 26.21 64.3299 26.38 64.5099 26.56C64.6899 26.74 64.8199 26.96 64.9099 27.23C64.9499 27.35 64.9699 27.5 64.9699 27.69C64.9699 27.87 64.9299 28.07 64.8499 28.27C64.7699 28.47 64.6399 28.66 64.4599 28.85C64.2799 29.03 64.0399 29.17 63.7299 29.27C63.2999 29.41 62.9699 29.43 62.7199 29.36C62.4699 29.29 62.2099 29.15 61.9299 28.96L56.3499 25.2H56.3099L57.6099 29.32C57.7899 29.89 57.7699 30.37 57.5599 30.76C57.3399 31.14 56.9999 31.41 56.5399 31.56C56.0699 31.71 55.6399 31.69 55.2399 31.5C54.8399 31.31 54.5499 30.93 54.3699 30.35L50.8699 19.32V19.3ZM55.5399 22.8L57.6799 22.12C58.2099 21.95 58.5799 21.67 58.7599 21.27C58.9499 20.87 58.9699 20.45 58.8299 19.99C58.6799 19.51 58.3999 19.18 57.9899 19.01C57.5799 18.84 57.1499 18.83 56.6799 18.97L54.5399 19.65L55.5399 22.79V22.8Z" fill="white"/>
<path d="M66.0699 15.33C66.0399 14.79 66.1899 14.36 66.5099 14.04C66.8399 13.73 67.2199 13.56 67.6699 13.53L72.8699 13.23C73.3999 13.2 73.8299 13.32 74.1399 13.59C74.4599 13.86 74.6299 14.23 74.6599 14.71C74.6899 15.2 74.5599 15.59 74.2799 15.89C73.9999 16.19 73.5899 16.35 73.0599 16.38L69.5599 16.58L69.7199 19.28L72.9299 19.09C73.4599 19.06 73.8899 19.17 74.1999 19.44C74.5099 19.71 74.6899 20.08 74.7199 20.57C74.7499 21.06 74.6199 21.45 74.3399 21.75C74.0599 22.05 73.6499 22.21 73.1199 22.24L69.9099 22.43L70.0699 25.22L73.6999 25.01C74.2299 24.98 74.6599 25.09 74.9699 25.36C75.2799 25.63 75.4599 26 75.4899 26.49C75.5199 26.97 75.3899 27.36 75.1099 27.66C74.8299 27.96 74.4199 28.13 73.8899 28.16L68.5599 28.47C68.1099 28.5 67.7099 28.37 67.3499 28.1C66.9899 27.83 66.7999 27.42 66.7599 26.87L66.0899 15.34L66.0699 15.33Z" fill="white"/>
<path d="M79.4598 15.07C79.5598 14.53 79.8098 14.15 80.1998 13.93C80.5898 13.71 81.0098 13.64 81.4498 13.72L85.5499 14.51C86.1999 14.63 86.7999 14.86 87.3699 15.18C87.9399 15.5 88.4099 15.92 88.7999 16.43C89.1899 16.94 89.4599 17.53 89.6199 18.21C89.7799 18.89 89.7799 19.64 89.6199 20.47C89.4799 21.19 89.2498 21.82 88.9198 22.39C88.5898 22.95 88.1698 23.42 87.6698 23.79C87.1698 24.16 86.5798 24.4 85.9198 24.54C85.2598 24.68 84.5299 24.66 83.7299 24.51L81.1899 24.02L80.5998 27.09C80.4898 27.68 80.2399 28.09 79.8699 28.33C79.4999 28.57 79.0698 28.64 78.5898 28.54C78.1098 28.45 77.7399 28.22 77.4799 27.87C77.2199 27.51 77.1499 27.04 77.2599 26.45L79.4399 15.09L79.4598 15.07ZM81.7798 21.03L83.5698 21.37C84.2798 21.51 84.8699 21.41 85.3299 21.07C85.7899 20.73 86.0599 20.31 86.1599 19.8C86.2899 19.14 86.1798 18.6 85.8398 18.18C85.4998 17.76 84.9998 17.48 84.3398 17.36L82.5499 17.02L81.7798 21.04V21.03Z" fill="white"/>
<path d="M94.98 18.82C95.22 18.33 95.57 18.03 96 17.92C96.44 17.81 96.86 17.86 97.26 18.06L100.92 19.89C101.6 20.23 102.16 20.64 102.61 21.11C103.06 21.59 103.39 22.1 103.6 22.66C103.81 23.22 103.89 23.8 103.85 24.42C103.81 25.03 103.63 25.65 103.32 26.28C102.83 27.27 102.13 27.96 101.24 28.35C100.35 28.74 99.38 28.78 98.32 28.48L99.54 32.66C99.64 32.99 99.69 33.28 99.7 33.54C99.7 33.79 99.65 34.05 99.52 34.3C99.46 34.41 99.37 34.53 99.24 34.67C99.11 34.8 98.95 34.91 98.75 35C98.55 35.09 98.32 35.13 98.07 35.14C97.82 35.14 97.55 35.08 97.26 34.93C96.86 34.73 96.6 34.52 96.48 34.29C96.36 34.06 96.26 33.79 96.19 33.45L94.81 26.87L94.77 26.85L92.85 30.7C92.58 31.24 92.23 31.57 91.81 31.7C91.39 31.83 90.96 31.78 90.52 31.56C90.08 31.34 89.79 31.02 89.63 30.61C89.48 30.2 89.53 29.72 89.8 29.18L94.97 18.83L94.98 18.82ZM95.9 24.58L97.91 25.58C98.41 25.83 98.87 25.88 99.28 25.73C99.69 25.58 100.01 25.29 100.22 24.86C100.44 24.41 100.47 23.98 100.3 23.57C100.13 23.16 99.82 22.85 99.38 22.63L97.37 21.63L95.9 24.58Z" fill="white"/>
<path d="M103.74 37.56C103.37 38.03 102.96 38.29 102.53 38.33C102.09 38.37 101.68 38.24 101.29 37.93C100.9 37.63 100.68 37.26 100.61 36.82C100.54 36.38 100.69 35.93 101.06 35.46L108.2 26.33C108.57 25.86 108.98 25.6 109.41 25.56C109.84 25.52 110.26 25.65 110.65 25.95C111.04 26.25 111.26 26.62 111.33 27.06C111.4 27.5 111.25 27.95 110.88 28.42L103.74 37.55V37.56Z" fill="white"/>
<path d="M105.67 38.29C106.02 37.99 106.42 37.82 106.88 37.78C107.34 37.74 107.74 37.92 108.08 38.31C108.22 38.47 108.33 38.67 108.42 38.91C108.51 39.15 108.62 39.43 108.74 39.72C108.86 40.02 109 40.33 109.16 40.66C109.33 40.99 109.55 41.32 109.83 41.65C110.27 42.16 110.69 42.42 111.08 42.43C111.47 42.44 111.8 42.33 112.08 42.09C112.29 41.91 112.42 41.69 112.46 41.45C112.5 41.21 112.48 40.94 112.39 40.63C112.3 40.33 112.18 39.98 112.02 39.61C111.86 39.24 111.68 38.81 111.47 38.34C111.29 37.92 111.13 37.49 110.98 37.04C110.83 36.59 110.76 36.14 110.77 35.69C110.77 35.24 110.88 34.79 111.09 34.33C111.3 33.87 111.65 33.42 112.16 32.98C112.77 32.45 113.4 32.1 114.05 31.92C114.7 31.75 115.33 31.72 115.95 31.84C116.57 31.96 117.17 32.2 117.74 32.55C118.31 32.91 118.83 33.36 119.3 33.9C120.2 34.94 120.73 35.87 120.89 36.69C121.05 37.51 120.89 38.14 120.38 38.57C120.03 38.87 119.65 39.02 119.24 39C118.83 38.99 118.48 38.81 118.18 38.47C118.01 38.27 117.87 38.07 117.78 37.88C117.69 37.69 117.61 37.49 117.53 37.29C117.45 37.09 117.36 36.87 117.24 36.65C117.12 36.43 116.94 36.18 116.7 35.9C116.4 35.55 116.07 35.34 115.71 35.27C115.35 35.2 115.04 35.28 114.76 35.52C114.6 35.66 114.51 35.81 114.47 35.99C114.43 36.17 114.47 36.39 114.54 36.65C114.62 36.91 114.75 37.24 114.92 37.63C115.09 38.02 115.3 38.5 115.53 39.07C115.72 39.52 115.87 39.98 116 40.44C116.13 40.91 116.17 41.38 116.14 41.86C116.11 42.34 115.98 42.81 115.75 43.28C115.52 43.75 115.13 44.22 114.59 44.69C113.95 45.25 113.29 45.62 112.61 45.81C111.94 46 111.28 46.03 110.63 45.92C109.98 45.8 109.36 45.55 108.76 45.15C108.16 44.75 107.59 44.26 107.07 43.65C106.74 43.27 106.42 42.83 106.11 42.32C105.8 41.82 105.56 41.31 105.38 40.79C105.2 40.27 105.12 39.79 105.13 39.34C105.14 38.88 105.31 38.52 105.62 38.24L105.67 38.29Z" fill="white"/>
<path d="M123.73 43.21C124.22 42.96 124.67 42.92 125.09 43.09C125.51 43.26 125.82 43.55 126.02 43.94L128.4 48.57C128.64 49.04 128.7 49.48 128.59 49.88C128.47 50.28 128.2 50.59 127.78 50.8C127.34 51.02 126.93 51.07 126.55 50.93C126.16 50.79 125.85 50.48 125.61 50.01L124.01 46.89L121.6 48.13L123.07 50.99C123.31 51.46 123.38 51.9 123.27 52.29C123.16 52.69 122.88 53 122.45 53.22C122.01 53.44 121.6 53.49 121.22 53.35C120.83 53.21 120.52 52.9 120.28 52.43L118.81 49.57L116.32 50.84L117.98 54.07C118.22 54.54 118.29 54.98 118.18 55.37C118.07 55.77 117.79 56.08 117.36 56.3C116.94 56.52 116.53 56.56 116.14 56.42C115.75 56.28 115.43 55.98 115.19 55.5L112.75 50.75C112.55 50.35 112.5 49.93 112.6 49.49C112.71 49.05 113 48.71 113.49 48.46L123.77 43.19L123.73 43.21Z" fill="white"/>
<path d="M25.09 81.84L25.02 80.82C24.98 80.31 25.11 79.93 25.41 79.66C25.7 79.39 26.04 79.24 26.41 79.22C26.78 79.19 27.13 79.29 27.46 79.51C27.79 79.73 27.97 80.1 28.01 80.6L28.2 83.23C28.21 83.42 28.2 83.61 28.18 83.8C28.15 84 28.09 84.17 27.98 84.34C27.87 84.5 27.71 84.64 27.51 84.76C27.3 84.88 27.03 84.94 26.7 84.97L15.71 85.76C15.14 85.8 14.7 85.68 14.39 85.39C14.08 85.1 13.91 84.73 13.88 84.26C13.85 83.79 13.96 83.4 14.23 83.07C14.49 82.74 14.91 82.56 15.48 82.52L25.09 81.83V81.84Z" fill="white"/>
<path d="M21.2701 87.86C22.1701 87.61 23.0801 87.47 24.0001 87.45C24.9201 87.43 25.7901 87.56 26.5901 87.85C27.3901 88.14 28.1001 88.58 28.7101 89.18C29.3201 89.78 29.7701 90.58 30.0501 91.56C30.3301 92.55 30.3701 93.46 30.1601 94.29C29.9501 95.12 29.5801 95.87 29.0501 96.54C28.5201 97.2 27.8501 97.77 27.0601 98.24C26.2601 98.71 25.4201 99.07 24.5201 99.33C23.6201 99.58 22.7101 99.72 21.7901 99.74C20.8701 99.76 20.0001 99.63 19.2001 99.34C18.4001 99.05 17.6901 98.61 17.0801 98.01C16.4701 97.41 16.0201 96.61 15.7401 95.63C15.4601 94.64 15.4201 93.73 15.6301 92.9C15.8401 92.07 16.2101 91.32 16.7401 90.65C17.2701 89.98 17.9401 89.42 18.7301 88.95C19.5301 88.48 20.3701 88.12 21.2701 87.87V87.86ZM22.1901 91.09C21.7701 91.21 21.3201 91.38 20.8601 91.59C20.3901 91.81 19.9801 92.07 19.6201 92.38C19.2601 92.69 18.9901 93.05 18.8101 93.44C18.6301 93.84 18.6101 94.28 18.7501 94.77C18.8901 95.26 19.1401 95.62 19.5001 95.87C19.8601 96.12 20.2801 96.27 20.7501 96.35C21.2201 96.42 21.7101 96.43 22.2201 96.37C22.7301 96.31 23.2001 96.22 23.6201 96.1C24.0401 95.98 24.4901 95.81 24.9501 95.6C25.4201 95.39 25.8301 95.12 26.1901 94.81C26.5501 94.5 26.8201 94.14 27.0001 93.75C27.1801 93.35 27.2001 92.91 27.0601 92.42C26.9201 91.93 26.6701 91.57 26.3101 91.32C25.9501 91.07 25.5301 90.92 25.0601 90.84C24.5901 90.77 24.1001 90.76 23.5901 90.82C23.0801 90.88 22.6101 90.97 22.1901 91.09Z" fill="white"/>
<path d="M25.4301 101.39C26.2301 100.9 27.0701 100.53 27.9501 100.27C28.8301 100.01 29.7001 99.9 30.5501 99.97C31.4001 100.03 32.2001 100.27 32.9501 100.69C33.7001 101.11 34.3501 101.75 34.8801 102.63C35.4101 103.51 35.6901 104.38 35.7101 105.24C35.7301 106.1 35.5801 106.92 35.2401 107.7C34.9001 108.48 34.4101 109.2 33.7701 109.87C33.1301 110.53 32.4101 111.11 31.6101 111.59C30.8101 112.07 29.9701 112.45 29.0901 112.71C28.2101 112.97 27.3401 113.08 26.4901 113.01C25.6401 112.94 24.8401 112.71 24.0901 112.29C23.3401 111.87 22.6901 111.23 22.1601 110.35C21.6301 109.47 21.3501 108.6 21.3301 107.74C21.3101 106.88 21.4601 106.06 21.8001 105.28C22.1401 104.5 22.6301 103.78 23.2701 103.11C23.9101 102.45 24.6301 101.87 25.4301 101.39ZM27.1801 104.26C26.8001 104.49 26.4201 104.77 26.0301 105.1C25.6401 105.43 25.3101 105.8 25.0401 106.19C24.7701 106.59 24.6101 107 24.5401 107.43C24.4701 107.86 24.5701 108.29 24.8401 108.72C25.1001 109.15 25.4401 109.44 25.8501 109.58C26.2601 109.72 26.7101 109.76 27.1801 109.71C27.6501 109.66 28.1301 109.53 28.6001 109.34C29.0701 109.14 29.5001 108.93 29.8801 108.71C30.2601 108.48 30.6401 108.2 31.0301 107.87C31.4201 107.54 31.7501 107.17 32.0201 106.78C32.2901 106.38 32.4501 105.97 32.5201 105.54C32.5901 105.11 32.4901 104.68 32.2301 104.25C31.9701 103.82 31.6301 103.53 31.2201 103.39C30.8101 103.25 30.3601 103.21 29.8901 103.26C29.4201 103.31 28.9401 103.44 28.4701 103.63C28.0001 103.82 27.5701 104.04 27.1901 104.26H27.1801Z" fill="white"/>
<path d="M43.86 114.74C44.19 114.63 44.4999 114.57 44.7599 114.54C45.0199 114.51 45.27 114.6 45.49 114.8C45.74 115.04 45.8799 115.31 45.8899 115.62C45.8999 115.93 45.7999 116.2 45.5999 116.42C45.4199 116.62 45.19 116.76 44.9 116.85C44.62 116.94 44.3599 117.02 44.1399 117.09L31.78 120.95C31.44 121.06 31.1399 121.12 30.8799 121.15C30.6199 121.18 30.3699 121.09 30.1499 120.89C29.8999 120.65 29.76 120.38 29.75 120.07C29.74 119.76 29.84 119.49 30.04 119.27C30.22 119.07 30.45 118.93 30.74 118.84C31.02 118.75 31.28 118.67 31.5 118.6L43.86 114.74ZM35.16 121.13C35.46 120.81 35.8 120.56 36.18 120.38C36.56 120.21 36.95 120.1 37.36 120.08C37.77 120.06 38.17 120.11 38.56 120.24C38.96 120.37 39.3199 120.59 39.6399 120.88C39.9599 121.18 40.2099 121.52 40.3699 121.91C40.5299 122.29 40.6199 122.69 40.6199 123.1C40.6199 123.51 40.56 123.91 40.41 124.31C40.26 124.71 40.04 125.06 39.75 125.38C39.46 125.69 39.12 125.94 38.74 126.12C38.36 126.3 37.96 126.4 37.56 126.43C37.15 126.46 36.75 126.4 36.36 126.27C35.96 126.14 35.5999 125.93 35.2799 125.63C34.9499 125.32 34.7 124.98 34.54 124.59C34.38 124.2 34.29 123.81 34.29 123.4C34.29 122.99 34.3599 122.6 34.5099 122.2C34.6599 121.81 34.89 121.45 35.18 121.14L35.16 121.13ZM35.9 110.33C36.2 110.01 36.5399 109.76 36.9199 109.58C37.2999 109.4 37.6899 109.3 38.0999 109.28C38.4999 109.25 38.9099 109.31 39.2999 109.44C39.6999 109.57 40.06 109.78 40.38 110.08C40.7 110.38 40.95 110.72 41.11 111.11C41.27 111.5 41.36 111.89 41.36 112.3C41.36 112.71 41.3 113.11 41.15 113.5C41 113.89 40.78 114.25 40.49 114.57C40.2 114.88 39.8599 115.13 39.4799 115.31C39.0999 115.49 38.6999 115.59 38.2999 115.62C37.8999 115.65 37.4899 115.59 37.0999 115.46C36.6999 115.33 36.34 115.11 36.02 114.82C35.69 114.51 35.4399 114.17 35.2799 113.78C35.1199 113.4 35.0299 113 35.0299 112.59C35.0299 112.18 35.1 111.79 35.25 111.39C35.4 111 35.6299 110.64 35.9199 110.33H35.9ZM36.83 122.68C36.66 122.87 36.56 123.08 36.54 123.31C36.52 123.55 36.61 123.76 36.81 123.94C37.01 124.12 37.2199 124.19 37.4599 124.15C37.6899 124.11 37.9 124 38.07 123.82C38.24 123.63 38.34 123.42 38.36 123.19C38.38 122.95 38.29 122.74 38.09 122.56C37.89 122.38 37.6799 122.31 37.4399 122.35C37.2099 122.39 37 122.5 36.83 122.68ZM37.58 111.88C37.41 112.07 37.31 112.28 37.29 112.51C37.27 112.75 37.36 112.96 37.56 113.14C37.76 113.32 37.9699 113.39 38.2099 113.35C38.4399 113.31 38.65 113.2 38.82 113.02C38.99 112.83 39.09 112.62 39.11 112.39C39.13 112.15 39.04 111.94 38.84 111.76C38.64 111.58 38.4299 111.51 38.1899 111.55C37.9599 111.59 37.75 111.7 37.58 111.88Z" fill="white"/>
<path d="M52.3201 121.44C52.5201 120.96 52.8201 120.65 53.2301 120.51C53.6401 120.38 54.0401 120.39 54.4301 120.55L59.0201 122.43C59.4901 122.62 59.8001 122.9 59.9701 123.26C60.1401 123.62 60.1301 124.01 59.9601 124.43C59.7801 124.86 59.5101 125.15 59.1501 125.29C58.7801 125.43 58.3701 125.4 57.9001 125.21L54.8101 123.95L53.8501 126.3L56.5501 127.4C57.0201 127.59 57.3401 127.86 57.5001 128.22C57.6601 128.58 57.6601 128.97 57.4801 129.4C57.3001 129.83 57.0301 130.12 56.6701 130.26C56.3001 130.4 55.8901 130.37 55.4201 130.18L52.7201 129.08L51.1701 132.87C50.9501 133.4 50.6501 133.74 50.2601 133.89C49.8701 134.04 49.4601 134.03 49.0201 133.85C48.5801 133.67 48.2801 133.39 48.1101 133.01C47.9301 132.63 47.9601 132.17 48.1701 131.64L52.3401 121.44H52.3201Z" fill="white"/>
<path d="M60.5901 124.78C60.6801 124.27 60.9101 123.9 61.2801 123.68C61.6501 123.46 62.0401 123.39 62.4701 123.46L66.3101 124.12C67.0201 124.24 67.6401 124.46 68.1901 124.77C68.7301 125.08 69.1701 125.46 69.5201 125.91C69.8701 126.36 70.1001 126.87 70.2301 127.44C70.3601 128.01 70.3701 128.62 70.2601 129.28C70.0801 130.32 69.6401 131.14 68.9301 131.74C68.2201 132.34 67.3501 132.65 66.3101 132.66L68.5701 136.13C68.7501 136.4 68.8801 136.66 68.9601 136.89C69.0401 137.12 69.0501 137.37 69.0101 137.63C68.9901 137.75 68.9401 137.88 68.8601 138.04C68.7801 138.2 68.6601 138.34 68.5001 138.47C68.3401 138.61 68.1501 138.71 67.9201 138.79C67.6901 138.87 67.4201 138.88 67.1201 138.83C66.7001 138.76 66.4001 138.64 66.2301 138.46C66.0601 138.29 65.8901 138.06 65.7401 137.78L62.6701 132.16H62.6301L61.9301 136.19C61.8301 136.76 61.6101 137.15 61.2601 137.38C60.9101 137.61 60.5001 137.69 60.0401 137.61C59.5801 137.53 59.2201 137.32 58.9701 136.99C58.7201 136.66 58.6401 136.21 58.7401 135.64L60.6101 124.78H60.5901ZM63.0101 129.79L65.1201 130.15C65.6501 130.24 66.0801 130.15 66.4101 129.91C66.7401 129.66 66.9501 129.31 67.0301 128.86C67.1101 128.39 67.0201 127.99 66.7501 127.66C66.4801 127.34 66.1201 127.14 65.6601 127.06L63.5501 126.7L63.0201 129.79H63.0101Z" fill="white"/>
<path d="M74.88 127.37C74.99 126.96 75.11 126.57 75.22 126.21C75.34 125.85 75.48 125.52 75.66 125.24C75.84 124.96 76.06 124.72 76.32 124.54C76.59 124.36 76.92 124.25 77.32 124.22C77.73 124.18 78.09 124.24 78.39 124.37C78.69 124.51 78.95 124.7 79.17 124.95C79.39 125.2 79.59 125.49 79.77 125.83C79.95 126.17 80.12 126.53 80.3 126.92L84.11 135.05C84.24 135.32 84.34 135.55 84.42 135.75C84.5 135.94 84.56 136.12 84.61 136.27C84.65 136.42 84.69 136.55 84.71 136.66C84.73 136.77 84.75 136.89 84.76 137.01C84.79 137.41 84.68 137.74 84.41 138C84.14 138.26 83.78 138.41 83.31 138.45C82.78 138.49 82.39 138.38 82.14 138.1C81.89 137.82 81.67 137.46 81.49 137.02L80.98 135.78L75.68 136.23L75.39 137.54C75.28 138 75.13 138.4 74.93 138.71C74.73 139.03 74.36 139.21 73.83 139.25C73.37 139.29 72.98 139.2 72.67 138.99C72.36 138.78 72.19 138.47 72.16 138.07C72.16 137.95 72.15 137.83 72.16 137.72C72.16 137.61 72.18 137.47 72.2 137.32C72.22 137.16 72.25 136.99 72.29 136.78C72.33 136.58 72.4 136.33 72.48 136.04L74.88 127.39V127.37ZM77.73 127.79H77.69L76.39 133.14L79.78 132.85L77.73 127.78V127.79Z" fill="white"/>
<path d="M84.65 125.39C84.44 124.85 84.43 124.4 84.61 124.02C84.79 123.64 85.1 123.37 85.54 123.2C85.74 123.12 85.92 123.08 86.09 123.07C86.26 123.07 86.44 123.09 86.64 123.16C86.84 123.23 87.06 123.33 87.32 123.47C87.57 123.61 87.89 123.79 88.26 124.02L95.71 128.37H95.75L93.31 122.05C93.1 121.51 93.09 121.06 93.27 120.68C93.45 120.3 93.76 120.03 94.2 119.86C94.64 119.69 95.05 119.69 95.44 119.84C95.83 119.99 96.13 120.34 96.33 120.88L100.31 131.18C100.52 131.71 100.53 132.17 100.35 132.55C100.17 132.93 99.86 133.2 99.42 133.37C99.22 133.45 99.04 133.49 98.87 133.5C98.7 133.5 98.52 133.48 98.32 133.41C98.12 133.34 97.9 133.24 97.64 133.09C97.38 132.95 97.07 132.77 96.7 132.55L89.25 128.2H89.21L91.65 134.52C91.86 135.06 91.87 135.51 91.69 135.89C91.51 136.27 91.2 136.54 90.76 136.71C90.32 136.88 89.91 136.88 89.52 136.73C89.13 136.57 88.83 136.23 88.63 135.69L84.65 125.39Z" fill="white"/>
<path d="M110.54 127.4C110.6 127.34 110.66 127.29 110.72 127.24C110.78 127.19 110.85 127.14 110.91 127.1C111.27 126.83 111.66 126.71 112.07 126.75C112.48 126.79 112.84 127.01 113.15 127.42C113.33 127.67 113.43 127.93 113.44 128.21C113.45 128.49 113.4 128.77 113.29 129.04C113.18 129.31 113.03 129.56 112.84 129.79C112.65 130.02 112.46 130.22 112.24 130.38C112.12 130.47 111.97 130.57 111.78 130.69C111.59 130.81 111.38 130.91 111.17 130.98C110.96 131.05 110.76 131.09 110.56 131.09C110.36 131.09 110.2 131 110.08 130.83C109.99 130.71 109.94 130.56 109.93 130.38C109.92 130.2 109.98 130.06 110.1 129.96C110.27 129.83 110.45 129.76 110.64 129.74C110.83 129.72 111.01 129.65 111.18 129.52C111.33 129.41 111.42 129.27 111.46 129.1C111.5 128.93 111.46 128.76 111.34 128.6C111.22 128.44 111.08 128.37 110.91 128.38C110.74 128.39 110.61 128.44 110.5 128.52L110.18 128.76C110.08 128.83 109.97 128.86 109.84 128.84C109.71 128.82 109.61 128.76 109.54 128.67C109.44 128.54 109.39 128.37 109.39 128.15C109.39 127.93 109.39 127.74 109.39 127.58V127.15C108.6 127.54 107.81 127.76 107 127.81C106.19 127.86 105.41 127.76 104.66 127.52C103.9 127.28 103.19 126.91 102.51 126.41C101.83 125.91 101.23 125.3 100.69 124.59C100.04 123.73 99.58 122.83 99.29 121.9C99.01 120.97 98.91 120.06 99.01 119.16C99.11 118.26 99.39 117.41 99.87 116.59C100.35 115.77 101.01 115.04 101.87 114.4C102.26 114.1 102.69 113.83 103.14 113.59C103.59 113.35 104.03 113.17 104.47 113.06C104.91 112.95 105.32 112.94 105.71 113.01C106.1 113.08 106.42 113.28 106.67 113.63C106.9 113.94 107.01 114.3 107 114.71C106.99 115.12 106.81 115.45 106.47 115.71C106.32 115.82 106.14 115.91 105.94 115.97C105.74 116.03 105.52 116.1 105.29 116.17C105.06 116.24 104.82 116.33 104.57 116.42C104.32 116.51 104.06 116.66 103.81 116.85C103.29 117.24 102.91 117.68 102.69 118.16C102.47 118.64 102.36 119.12 102.36 119.62C102.36 120.12 102.47 120.61 102.68 121.11C102.89 121.61 103.15 122.07 103.48 122.51C103.82 122.96 104.2 123.34 104.62 123.67C105.04 123.99 105.48 124.22 105.94 124.36C106.4 124.5 106.85 124.53 107.33 124.46C107.8 124.39 108.26 124.19 108.71 123.85C109.11 123.55 109.42 123.27 109.63 123.03C109.84 122.79 110.01 122.57 110.13 122.37C110.25 122.17 110.36 121.99 110.46 121.84C110.55 121.69 110.68 121.55 110.86 121.42C111.12 121.23 111.36 121.12 111.58 121.1C111.81 121.08 112.01 121.1 112.18 121.17C112.36 121.24 112.5 121.33 112.63 121.45C112.75 121.57 112.84 121.67 112.91 121.75C113.17 122.1 113.28 122.49 113.22 122.92C113.16 123.35 113.02 123.77 112.78 124.19C112.54 124.61 112.23 125.01 111.86 125.4C111.49 125.78 111.12 126.1 110.77 126.37C110.66 126.45 110.58 126.5 110.53 126.52V127.44L110.54 127.4Z" fill="white"/>
<path d="M109.64 111.1C109.42 110.74 109.21 110.39 109.02 110.06C108.83 109.73 108.7 109.4 108.61 109.08C108.53 108.76 108.51 108.44 108.55 108.12C108.6 107.8 108.75 107.49 108.99 107.17C109.25 106.85 109.53 106.62 109.83 106.49C110.13 106.36 110.45 106.3 110.79 106.31C111.12 106.31 111.47 106.37 111.84 106.48C112.21 106.58 112.59 106.7 113 106.83L121.54 109.59C121.83 109.68 122.07 109.76 122.26 109.84C122.45 109.92 122.62 109.99 122.76 110.06C122.9 110.13 123.02 110.19 123.12 110.25C123.22 110.31 123.31 110.38 123.41 110.45C123.72 110.7 123.89 111.01 123.9 111.38C123.91 111.75 123.77 112.12 123.48 112.49C123.15 112.91 122.8 113.11 122.42 113.11C122.04 113.11 121.63 113.02 121.19 112.85L119.94 112.37L116.65 116.55L117.41 117.66C117.67 118.06 117.86 118.44 117.95 118.8C118.05 119.16 117.93 119.55 117.6 119.97C117.31 120.34 116.98 120.56 116.62 120.63C116.25 120.71 115.91 120.63 115.6 120.37C115.51 120.3 115.42 120.22 115.34 120.14C115.26 120.06 115.17 119.96 115.07 119.84C114.97 119.72 114.86 119.57 114.74 119.4C114.62 119.23 114.48 119.02 114.33 118.76L109.65 111.1H109.64ZM111.89 109.3L111.87 109.33L114.89 113.93L116.99 111.26L111.89 109.3Z" fill="white"/>
<path d="M125.79 104.7C126.3 104.97 126.61 105.3 126.72 105.71C126.83 106.12 126.78 106.52 126.56 106.94C126.34 107.36 126.04 107.63 125.64 107.77C125.24 107.91 124.79 107.85 124.28 107.58L114.5 102.46C113.99 102.19 113.68 101.86 113.57 101.45C113.46 101.05 113.51 100.64 113.73 100.22C113.95 99.81 114.25 99.53 114.65 99.39C115.05 99.25 115.5 99.32 116.01 99.58L125.79 104.7Z" fill="white"/>
<path d="M126.74 102.16C126.32 102.02 125.99 101.78 125.73 101.42C125.48 101.06 125.42 100.65 125.58 100.18C125.64 99.99 125.75 99.8 125.91 99.6C126.06 99.41 126.23 99.19 126.42 98.95C126.6 98.71 126.79 98.44 126.98 98.14C127.17 97.84 127.33 97.5 127.46 97.11C127.66 96.5 127.67 96.03 127.49 95.71C127.31 95.38 127.05 95.17 126.72 95.06C126.47 94.98 126.23 94.98 126.01 95.06C125.79 95.14 125.58 95.3 125.38 95.52C125.18 95.74 124.96 96.01 124.73 96.33C124.5 96.65 124.24 97.01 123.96 97.4C123.71 97.75 123.43 98.1 123.14 98.44C122.85 98.78 122.51 99.06 122.14 99.27C121.77 99.48 121.35 99.62 120.87 99.68C120.4 99.74 119.85 99.66 119.25 99.46C118.52 99.22 117.92 98.88 117.46 98.43C117 97.98 116.67 97.48 116.46 96.91C116.25 96.34 116.16 95.74 116.17 95.1C116.18 94.46 116.3 93.81 116.51 93.17C116.92 91.93 117.42 91.04 118.01 90.51C118.6 89.98 119.2 89.81 119.8 90C120.22 90.14 120.52 90.38 120.71 90.72C120.9 91.06 120.93 91.44 120.79 91.84C120.71 92.08 120.62 92.28 120.51 92.45C120.4 92.62 120.28 92.78 120.15 92.94C120.02 93.1 119.89 93.28 119.77 93.49C119.65 93.7 119.53 93.96 119.42 94.29C119.28 94.71 119.27 95.08 119.39 95.41C119.51 95.74 119.73 95.95 120.06 96.06C120.25 96.12 120.43 96.12 120.58 96.06C120.74 96 120.91 95.87 121.08 95.68C121.26 95.48 121.46 95.22 121.7 94.89C121.94 94.56 122.23 94.16 122.58 93.68C122.86 93.31 123.15 92.96 123.47 92.62C123.79 92.29 124.15 92.02 124.56 91.81C124.97 91.6 125.42 91.47 125.91 91.43C126.41 91.39 126.98 91.47 127.63 91.69C128.4 91.94 129.03 92.3 129.51 92.76C129.99 93.22 130.34 93.74 130.56 94.33C130.78 94.92 130.88 95.55 130.85 96.24C130.82 96.93 130.69 97.63 130.45 98.35C130.3 98.81 130.09 99.28 129.83 99.78C129.57 100.28 129.27 100.72 128.94 101.12C128.61 101.52 128.25 101.82 127.87 102.03C127.49 102.24 127.11 102.29 126.73 102.16H126.74Z" fill="white"/>
<path d="M119.99 87.91C119.47 87.86 119.09 87.65 118.85 87.3C118.61 86.95 118.5 86.56 118.55 86.13L119.06 81.2C119.11 80.7 119.29 80.32 119.59 80.06C119.89 79.8 120.27 79.7 120.72 79.74C121.18 79.79 121.53 79.97 121.77 80.28C122.01 80.59 122.1 81 122.05 81.5L121.71 84.82L124.28 85.08L124.59 82.04C124.64 81.54 124.82 81.16 125.11 80.9C125.4 80.64 125.78 80.54 126.25 80.59C126.72 80.64 127.06 80.82 127.3 81.13C127.54 81.44 127.63 81.85 127.58 82.35L127.27 85.39L129.92 85.66L130.27 82.22C130.32 81.72 130.5 81.34 130.79 81.08C131.08 80.82 131.46 80.72 131.93 80.76C132.38 80.81 132.73 80.99 132.97 81.3C133.21 81.61 133.31 82.02 133.26 82.53L132.74 87.58C132.7 88 132.52 88.37 132.21 88.66C131.9 88.96 131.48 89.08 130.97 89.02L120.03 87.89L119.99 87.91Z" fill="white"/>
</g>
<defs>
<clipPath id="clip0_3134_1571">
<rect width="147.04" height="150.97" fill="white"/>
</clipPath>
</defs>
</svg>
